<mxfile host="app.diagrams.net" modified="2023-10-29T08:32:16.375Z" agent="Mozilla/5.0 (Windows NT 10.0; Win64; x64) AppleWebKit/537.36 (KHTML, like Gecko) Chrome/118.0.0.0 Safari/537.36" etag="wIHj2BrR46vY9zB8xF8B" version="22.0.8" type="github">
  <diagram name="Страница — 1" id="dQrRjmTpgejyBE9hyxQG">
    <mxGraphModel dx="751" dy="326" grid="1" gridSize="10" guides="1" tooltips="1" connect="1" arrows="1" fold="1" page="1" pageScale="1" pageWidth="827" pageHeight="1169" math="0" shadow="0">
      <root>
        <mxCell id="0" />
        <mxCell id="1" parent="0" />
        <mxCell id="rvS8YMkj_FBiYES3olQ1-1" value="sd CentralServer.FuncTurnOnTheLightInTheRoom(degree: String, entity: String)" style="shape=umlFrame;whiteSpace=wrap;html=1;pointerEvents=0;width=450;height=30;" parent="1" vertex="1">
          <mxGeometry x="30" y="30" width="770" height="320" as="geometry" />
        </mxCell>
        <mxCell id="rvS8YMkj_FBiYES3olQ1-2" value=":CentralServer" style="shape=umlActor;verticalLabelPosition=bottom;verticalAlign=top;html=1;" parent="1" vertex="1">
          <mxGeometry x="70" y="123" width="30" height="60" as="geometry" />
        </mxCell>
        <mxCell id="rvS8YMkj_FBiYES3olQ1-3" value="board :SubServer" style="html=1;whiteSpace=wrap;" parent="1" vertex="1">
          <mxGeometry x="550" y="140.5" width="110" height="25" as="geometry" />
        </mxCell>
        <mxCell id="rvS8YMkj_FBiYES3olQ1-4" value="" style="line;strokeWidth=1;fillColor=none;align=left;verticalAlign=middle;spacingTop=-1;spacingLeft=3;spacingRight=3;rotatable=0;labelPosition=right;points=[];portConstraint=eastwest;strokeColor=inherit;" parent="1" vertex="1">
          <mxGeometry x="350" y="149" width="200" height="8" as="geometry" />
        </mxCell>
        <mxCell id="rvS8YMkj_FBiYES3olQ1-8" value="entity :ConfigCatalog" style="html=1;whiteSpace=wrap;" parent="1" vertex="1">
          <mxGeometry x="235" y="140.5" width="120" height="25" as="geometry" />
        </mxCell>
        <mxCell id="rvS8YMkj_FBiYES3olQ1-9" value="sensorreading :SensorReading" style="html=1;whiteSpace=wrap;" parent="1" vertex="1">
          <mxGeometry x="534" y="287.5" width="180" height="25" as="geometry" />
        </mxCell>
        <mxCell id="rvS8YMkj_FBiYES3olQ1-11" value="controlswitch :ControlSwitch" style="html=1;whiteSpace=wrap;" parent="1" vertex="1">
          <mxGeometry x="280" y="287.5" width="160" height="25" as="geometry" />
        </mxCell>
        <mxCell id="rvS8YMkj_FBiYES3olQ1-14" value="&amp;nbsp;" style="text;html=1;align=center;verticalAlign=middle;resizable=0;points=[];autosize=1;strokeColor=none;fillColor=none;" parent="1" vertex="1">
          <mxGeometry x="341" y="119" width="30" height="30" as="geometry" />
        </mxCell>
        <mxCell id="rvS8YMkj_FBiYES3olQ1-20" style="edgeStyle=orthogonalEdgeStyle;rounded=0;orthogonalLoop=1;jettySize=auto;html=1;entryX=1;entryY=0.5;entryDx=0;entryDy=0;endArrow=none;endFill=0;" parent="1" source="rvS8YMkj_FBiYES3olQ1-18" target="rvS8YMkj_FBiYES3olQ1-3" edge="1">
          <mxGeometry relative="1" as="geometry">
            <Array as="points">
              <mxPoint x="680" y="119" />
              <mxPoint x="680" y="153" />
            </Array>
          </mxGeometry>
        </mxCell>
        <mxCell id="rvS8YMkj_FBiYES3olQ1-18" value="" style="line;strokeWidth=1;fillColor=none;align=left;verticalAlign=middle;spacingTop=-1;spacingLeft=3;spacingRight=3;rotatable=0;labelPosition=right;points=[];portConstraint=eastwest;strokeColor=inherit;" parent="1" vertex="1">
          <mxGeometry x="620" y="115" width="40" height="8" as="geometry" />
        </mxCell>
        <mxCell id="rvS8YMkj_FBiYES3olQ1-19" style="edgeStyle=orthogonalEdgeStyle;rounded=0;orthogonalLoop=1;jettySize=auto;html=1;endArrow=none;endFill=0;entryX=0.441;entryY=0.013;entryDx=0;entryDy=0;entryPerimeter=0;" parent="1" source="rvS8YMkj_FBiYES3olQ1-18" target="rvS8YMkj_FBiYES3olQ1-3" edge="1">
          <mxGeometry relative="1" as="geometry">
            <mxPoint x="600" y="123" as="targetPoint" />
          </mxGeometry>
        </mxCell>
        <mxCell id="rvS8YMkj_FBiYES3olQ1-22" value="" style="edgeStyle=none;orthogonalLoop=1;jettySize=auto;html=1;rounded=0;" parent="1" edge="1">
          <mxGeometry width="100" relative="1" as="geometry">
            <mxPoint x="690" y="123" as="sourcePoint" />
            <mxPoint x="690" y="153" as="targetPoint" />
            <Array as="points" />
          </mxGeometry>
        </mxCell>
        <mxCell id="rvS8YMkj_FBiYES3olQ1-24" value="" style="line;strokeWidth=1;fillColor=none;align=left;verticalAlign=middle;spacingTop=-1;spacingLeft=3;spacingRight=3;rotatable=0;labelPosition=right;points=[];portConstraint=eastwest;strokeColor=inherit;direction=south;" parent="1" vertex="1">
          <mxGeometry x="588" y="165.5" width="56" height="124.5" as="geometry" />
        </mxCell>
        <mxCell id="rvS8YMkj_FBiYES3olQ1-26" value="" style="edgeStyle=none;orthogonalLoop=1;jettySize=auto;html=1;rounded=0;entryX=0.815;entryY=0.022;entryDx=0;entryDy=0;entryPerimeter=0;exitX=0.367;exitY=1.056;exitDx=0;exitDy=0;exitPerimeter=0;endArrow=none;endFill=0;strokeWidth=1;" parent="1" source="rvS8YMkj_FBiYES3olQ1-3" target="rvS8YMkj_FBiYES3olQ1-11" edge="1">
          <mxGeometry width="100" relative="1" as="geometry">
            <mxPoint x="410" y="200" as="sourcePoint" />
            <mxPoint x="510" y="200" as="targetPoint" />
            <Array as="points" />
          </mxGeometry>
        </mxCell>
        <mxCell id="rvS8YMkj_FBiYES3olQ1-27" value="" style="edgeStyle=none;orthogonalLoop=1;jettySize=auto;html=1;rounded=0;exitX=0.073;exitY=1.094;exitDx=0;exitDy=0;exitPerimeter=0;" parent="1" source="rvS8YMkj_FBiYES3olQ1-49" edge="1">
          <mxGeometry width="100" relative="1" as="geometry">
            <mxPoint x="630" y="240" as="sourcePoint" />
            <mxPoint x="623.5" y="282.5" as="targetPoint" />
            <Array as="points" />
          </mxGeometry>
        </mxCell>
        <mxCell id="rvS8YMkj_FBiYES3olQ1-29" value="" style="edgeStyle=none;orthogonalLoop=1;jettySize=auto;html=1;rounded=0;exitX=0.678;exitY=1.15;exitDx=0;exitDy=0;exitPerimeter=0;" parent="1" source="rvS8YMkj_FBiYES3olQ1-41" edge="1">
          <mxGeometry width="100" relative="1" as="geometry">
            <mxPoint x="420" y="267.5" as="sourcePoint" />
            <mxPoint x="400" y="277.5" as="targetPoint" />
            <Array as="points" />
          </mxGeometry>
        </mxCell>
        <mxCell id="rvS8YMkj_FBiYES3olQ1-30" style="edgeStyle=orthogonalEdgeStyle;rounded=0;orthogonalLoop=1;jettySize=auto;html=1;entryX=1;entryY=0.5;entryDx=0;entryDy=0;endArrow=none;endFill=0;" parent="1" source="rvS8YMkj_FBiYES3olQ1-31" edge="1">
          <mxGeometry relative="1" as="geometry">
            <mxPoint x="715" y="295.5" as="targetPoint" />
            <Array as="points">
              <mxPoint x="735" y="261.5" />
              <mxPoint x="735" y="295.5" />
            </Array>
          </mxGeometry>
        </mxCell>
        <mxCell id="rvS8YMkj_FBiYES3olQ1-31" value="" style="line;strokeWidth=1;fillColor=none;align=left;verticalAlign=middle;spacingTop=-1;spacingLeft=3;spacingRight=3;rotatable=0;labelPosition=right;points=[];portConstraint=eastwest;strokeColor=inherit;" parent="1" vertex="1">
          <mxGeometry x="675" y="257.5" width="40" height="8" as="geometry" />
        </mxCell>
        <mxCell id="rvS8YMkj_FBiYES3olQ1-32" style="edgeStyle=orthogonalEdgeStyle;rounded=0;orthogonalLoop=1;jettySize=auto;html=1;endArrow=none;endFill=0;" parent="1" source="rvS8YMkj_FBiYES3olQ1-31" edge="1">
          <mxGeometry relative="1" as="geometry">
            <mxPoint x="654" y="287.5" as="targetPoint" />
          </mxGeometry>
        </mxCell>
        <mxCell id="rvS8YMkj_FBiYES3olQ1-33" value="" style="edgeStyle=none;orthogonalLoop=1;jettySize=auto;html=1;rounded=0;" parent="1" edge="1">
          <mxGeometry width="100" relative="1" as="geometry">
            <mxPoint x="745" y="265.5" as="sourcePoint" />
            <mxPoint x="745" y="295.5" as="targetPoint" />
            <Array as="points" />
          </mxGeometry>
        </mxCell>
        <mxCell id="rvS8YMkj_FBiYES3olQ1-38" value="1.3.1.3: value=getValue()" style="text;whiteSpace=wrap;" parent="1" vertex="1">
          <mxGeometry x="640" y="237.5" width="140" height="20" as="geometry" />
        </mxCell>
        <mxCell id="rvS8YMkj_FBiYES3olQ1-39" value="" style="edgeStyle=none;orthogonalLoop=1;jettySize=auto;html=1;rounded=0;endArrow=none;endFill=0;" parent="1" source="rvS8YMkj_FBiYES3olQ1-2" edge="1">
          <mxGeometry width="100" relative="1" as="geometry">
            <mxPoint x="185" y="153" as="sourcePoint" />
            <mxPoint x="235" y="153" as="targetPoint" />
            <Array as="points" />
          </mxGeometry>
        </mxCell>
        <mxCell id="rvS8YMkj_FBiYES3olQ1-41" value="1.3.1.1: funcTurnOn(switch)" style="text;html=1;align=center;verticalAlign=middle;resizable=0;points=[];autosize=1;strokeColor=none;fillColor=none;" parent="1" vertex="1">
          <mxGeometry x="335" y="207.5" width="170" height="30" as="geometry" />
        </mxCell>
        <mxCell id="rvS8YMkj_FBiYES3olQ1-42" value="2.1: *getState(entity)" style="text;whiteSpace=wrap;" parent="1" vertex="1">
          <mxGeometry x="280" y="89" width="150" height="30" as="geometry" />
        </mxCell>
        <mxCell id="rvS8YMkj_FBiYES3olQ1-43" style="edgeStyle=orthogonalEdgeStyle;rounded=0;orthogonalLoop=1;jettySize=auto;html=1;entryX=1;entryY=0.5;entryDx=0;entryDy=0;endArrow=none;endFill=0;" parent="1" edge="1">
          <mxGeometry relative="1" as="geometry">
            <mxPoint x="356" y="149" as="targetPoint" />
            <Array as="points">
              <mxPoint x="300" y="120" />
              <mxPoint x="376" y="120" />
              <mxPoint x="376" y="149" />
            </Array>
            <mxPoint x="300" y="140" as="sourcePoint" />
          </mxGeometry>
        </mxCell>
        <mxCell id="rvS8YMkj_FBiYES3olQ1-46" value="" style="edgeStyle=none;orthogonalLoop=1;jettySize=auto;html=1;rounded=0;" parent="1" edge="1">
          <mxGeometry width="100" relative="1" as="geometry">
            <mxPoint x="390" y="121.5" as="sourcePoint" />
            <mxPoint x="390" y="150" as="targetPoint" />
            <Array as="points" />
          </mxGeometry>
        </mxCell>
        <mxCell id="rvS8YMkj_FBiYES3olQ1-49" value="1.3.1.2 entityToSensor(entity)" style="text;html=1;align=center;verticalAlign=middle;resizable=0;points=[];autosize=1;strokeColor=none;fillColor=none;" parent="1" vertex="1">
          <mxGeometry x="610" y="210" width="180" height="30" as="geometry" />
        </mxCell>
        <mxCell id="rvS8YMkj_FBiYES3olQ1-50" value="*[value&amp;lt;degree] &lt;br&gt;2.2.1: switch()" style="text;html=1;align=center;verticalAlign=middle;resizable=0;points=[];autosize=1;strokeColor=none;fillColor=none;" parent="1" vertex="1">
          <mxGeometry x="585" y="79" width="110" height="40" as="geometry" />
        </mxCell>
        <mxCell id="rvS8YMkj_FBiYES3olQ1-52" value="1: board = detectBoard(entity)" style="text;html=1;align=center;verticalAlign=middle;resizable=0;points=[];autosize=1;strokeColor=none;fillColor=none;" parent="1" vertex="1">
          <mxGeometry x="80" y="110.5" width="180" height="30" as="geometry" />
        </mxCell>
        <mxCell id="rvS8YMkj_FBiYES3olQ1-53" value="" style="edgeStyle=none;orthogonalLoop=1;jettySize=auto;html=1;rounded=0;" parent="1" edge="1">
          <mxGeometry width="100" relative="1" as="geometry">
            <mxPoint x="120" y="139.5" as="sourcePoint" />
            <mxPoint x="220" y="139.5" as="targetPoint" />
            <Array as="points" />
          </mxGeometry>
        </mxCell>
        <mxCell id="rvS8YMkj_FBiYES3olQ1-54" value="2.2: switchState(entity)" style="text;html=1;align=center;verticalAlign=middle;resizable=0;points=[];autosize=1;strokeColor=none;fillColor=none;" parent="1" vertex="1">
          <mxGeometry x="405" y="115" width="140" height="30" as="geometry" />
        </mxCell>
        <mxCell id="rvS8YMkj_FBiYES3olQ1-56" value="" style="edgeStyle=none;orthogonalLoop=1;jettySize=auto;html=1;rounded=0;" parent="1" edge="1">
          <mxGeometry width="100" relative="1" as="geometry">
            <mxPoint x="425" y="140.5" as="sourcePoint" />
            <mxPoint x="525" y="140.5" as="targetPoint" />
            <Array as="points" />
          </mxGeometry>
        </mxCell>
        <mxCell id="H1cs_ENKEadUG9D82hZb-1" value="2. funcChange()" style="text;html=1;align=center;verticalAlign=middle;resizable=0;points=[];autosize=1;strokeColor=none;fillColor=none;" vertex="1" parent="1">
          <mxGeometry x="126" y="147.5" width="110" height="30" as="geometry" />
        </mxCell>
        <mxCell id="H1cs_ENKEadUG9D82hZb-2" value="&lt;br&gt;2.2.1.1: switchConditions (degree)" style="text;html=1;align=center;verticalAlign=middle;resizable=0;points=[];autosize=1;strokeColor=none;fillColor=none;" vertex="1" parent="1">
          <mxGeometry x="685" y="117" width="210" height="40" as="geometry" />
        </mxCell>
        <mxCell id="H1cs_ENKEadUG9D82hZb-4" value="На диаграмме изображен сценарий TurnOnTheLightInTheRoom объекта CentralServer. Первым действием CentralServer посылает сообщение detectBoard(entity) объекту entity класса ConfigCatalog, в качестве аргумента передавая entity, впоследствии получая результат board (нужен позднее для определения нужного объекта класса SubServer). Затем вторым действием посылает сообщение funcChange объекту entity. В действии 2.1 объект entity класса ConfigCatalog вычисляет state собственным методом getState(entity), после чего на шаге 2.2 посылает сообщение switchState(entity) объекту board класса SubServer." style="text;html=1;strokeColor=none;fillColor=none;align=left;verticalAlign=middle;whiteSpace=wrap;rounded=0;" vertex="1" parent="1">
          <mxGeometry x="250" y="380" width="390" height="200" as="geometry" />
        </mxCell>
      </root>
    </mxGraphModel>
  </diagram>
</mxfile>
